<svg width="445" height="52" viewBox="0 0 445 52" fill="none" xmlns="http://www.w3.org/2000/svg">
<path d="M25.1522 0L17.3776 17.1229L0 19.8529L12.5761 33.1871L9.60294 52L25.1522 43.1229L40.7014 52L37.7283 33.1871L50.3043 19.8714L32.9268 17.1229L25.1522 0Z" fill="#D1A954"/>
<path d="M123.826 0L116.052 17.1229L98.674 19.8529L111.25 33.1871L108.277 52L123.826 43.1229L139.375 52L136.402 33.1871L148.978 19.8714L131.601 17.1229L123.826 0Z" fill="#D1A954"/>
<path d="M222.5 0L214.725 17.1229L197.348 19.8529L209.924 33.1871L206.951 52L222.5 43.1229L238.049 52L235.076 33.1871L247.652 19.8714L230.275 17.1229L222.5 0Z" fill="#D1A954"/>
<path d="M321.174 0L313.399 17.1229L296.022 19.8529L308.598 33.1871L305.625 52L321.174 43.1229L336.723 52L333.75 33.1871L346.326 19.8714L328.949 17.1229L321.174 0Z" fill="#D1A954"/>
<path d="M419.848 0L412.073 17.1229L394.696 19.8529L407.272 33.1871L404.299 52L419.848 43.1229L435.397 52L432.424 33.1871L445 19.8714L427.622 17.1229L419.848 0Z" fill="#D1A954"/>
</svg>
